<svg width="1392" height="1656" viewBox="0 0 1392 1656" fill="none" xmlns="http://www.w3.org/2000/svg">
<rect width="412" height="344" fill="url(#paint0_linear_164_3)"/>
<path d="M1391 237C1343 290.167 1193.28 584.363 1306.39 869C1397 1097 1306.39 1244 1173 1285" stroke="#FADCD9" stroke-width="2"/>
<line x1="1" y1="-1" x2="3.75373" y2="-1" transform="matrix(0.248678 0.968586 -0.716453 0.697636 203 1556)" stroke="#140005" stroke-width="2" stroke-linecap="round"/>
<line x1="1" y1="-1" x2="3.75373" y2="-1" transform="matrix(0.248678 0.968586 -0.716453 0.697636 203 1575.08)" stroke="#140005" stroke-width="2" stroke-linecap="round"/>
<line x1="1" y1="-1" x2="3.75373" y2="-1" transform="matrix(0.248678 0.968586 -0.716453 0.697636 203 1594.16)" stroke="#140005" stroke-width="2" stroke-linecap="round"/>
<line x1="1" y1="-1" x2="3.75373" y2="-1" transform="matrix(0.248678 0.968586 -0.716453 0.697636 203 1613.24)" stroke="#140005" stroke-width="2" stroke-linecap="round"/>
<line x1="1" y1="-1" x2="3.75373" y2="-1" transform="matrix(0.248678 0.968586 -0.716453 0.697636 203 1632.32)" stroke="#140005" stroke-width="2" stroke-linecap="round"/>
<line x1="1" y1="-1" x2="3.75373" y2="-1" transform="matrix(0.248678 0.968586 -0.716453 0.697636 203 1651.4)" stroke="#140005" stroke-width="2" stroke-linecap="round"/>
<line x1="1" y1="-1" x2="3.75373" y2="-1" transform="matrix(0.248678 0.968586 -0.716453 0.697636 222.764 1556)" stroke="#140005" stroke-width="2" stroke-linecap="round"/>
<line x1="1" y1="-1" x2="3.75373" y2="-1" transform="matrix(0.248678 0.968586 -0.716453 0.697636 222.764 1575.08)" stroke="#140005" stroke-width="2" stroke-linecap="round"/>
<line x1="1" y1="-1" x2="3.75373" y2="-1" transform="matrix(0.248678 0.968586 -0.716453 0.697636 222.764 1594.16)" stroke="#140005" stroke-width="2" stroke-linecap="round"/>
<line x1="1" y1="-1" x2="3.75373" y2="-1" transform="matrix(0.248678 0.968586 -0.716453 0.697636 222.764 1613.24)" stroke="#140005" stroke-width="2" stroke-linecap="round"/>
<line x1="1" y1="-1" x2="3.75373" y2="-1" transform="matrix(0.248678 0.968586 -0.716453 0.697636 222.764 1632.32)" stroke="#140005" stroke-width="2" stroke-linecap="round"/>
<line x1="1" y1="-1" x2="3.75373" y2="-1" transform="matrix(0.248678 0.968586 -0.716453 0.697636 222.764 1651.4)" stroke="#140005" stroke-width="2" stroke-linecap="round"/>
<line x1="1" y1="-1" x2="3.75373" y2="-1" transform="matrix(0.248678 0.968586 -0.716453 0.697636 242.527 1556)" stroke="#140005" stroke-width="2" stroke-linecap="round"/>
<line x1="1" y1="-1" x2="3.75373" y2="-1" transform="matrix(0.248678 0.968586 -0.716453 0.697636 242.527 1575.08)" stroke="#140005" stroke-width="2" stroke-linecap="round"/>
<line x1="1" y1="-1" x2="3.75373" y2="-1" transform="matrix(0.248678 0.968586 -0.716453 0.697636 242.527 1594.16)" stroke="#140005" stroke-width="2" stroke-linecap="round"/>
<line x1="1" y1="-1" x2="3.75373" y2="-1" transform="matrix(0.248678 0.968586 -0.716453 0.697636 242.527 1613.24)" stroke="#140005" stroke-width="2" stroke-linecap="round"/>
<line x1="1" y1="-1" x2="3.75373" y2="-1" transform="matrix(0.248678 0.968586 -0.716453 0.697636 242.527 1632.32)" stroke="#140005" stroke-width="2" stroke-linecap="round"/>
<line x1="1" y1="-1" x2="3.75373" y2="-1" transform="matrix(0.248678 0.968586 -0.716453 0.697636 242.527 1651.4)" stroke="#140005" stroke-width="2" stroke-linecap="round"/>
<line x1="1" y1="-1" x2="3.75373" y2="-1" transform="matrix(0.248678 0.968586 -0.716453 0.697636 262.291 1556)" stroke="#140005" stroke-width="2" stroke-linecap="round"/>
<line x1="1" y1="-1" x2="3.75373" y2="-1" transform="matrix(0.248678 0.968586 -0.716453 0.697636 262.291 1575.08)" stroke="#140005" stroke-width="2" stroke-linecap="round"/>
<line x1="1" y1="-1" x2="3.75373" y2="-1" transform="matrix(0.248678 0.968586 -0.716453 0.697636 262.291 1594.16)" stroke="#140005" stroke-width="2" stroke-linecap="round"/>
<line x1="1" y1="-1" x2="3.75373" y2="-1" transform="matrix(0.248678 0.968586 -0.716453 0.697636 262.291 1613.24)" stroke="#140005" stroke-width="2" stroke-linecap="round"/>
<line x1="1" y1="-1" x2="3.75373" y2="-1" transform="matrix(0.248678 0.968586 -0.716453 0.697636 262.291 1632.32)" stroke="#140005" stroke-width="2" stroke-linecap="round"/>
<line x1="1" y1="-1" x2="3.75373" y2="-1" transform="matrix(0.248678 0.968586 -0.716453 0.697636 262.291 1651.4)" stroke="#140005" stroke-width="2" stroke-linecap="round"/>
<line x1="1" y1="-1" x2="3.75373" y2="-1" transform="matrix(0.248678 0.968586 -0.716453 0.697636 282.054 1556)" stroke="#140005" stroke-width="2" stroke-linecap="round"/>
<line x1="1" y1="-1" x2="3.75373" y2="-1" transform="matrix(0.248678 0.968586 -0.716453 0.697636 282.054 1575.08)" stroke="#140005" stroke-width="2" stroke-linecap="round"/>
<line x1="1" y1="-1" x2="3.75373" y2="-1" transform="matrix(0.248678 0.968586 -0.716453 0.697636 282.054 1594.16)" stroke="#140005" stroke-width="2" stroke-linecap="round"/>
<line x1="1" y1="-1" x2="3.75373" y2="-1" transform="matrix(0.248678 0.968586 -0.716453 0.697636 282.054 1613.24)" stroke="#140005" stroke-width="2" stroke-linecap="round"/>
<line x1="1" y1="-1" x2="3.75373" y2="-1" transform="matrix(0.248678 0.968586 -0.716453 0.697636 282.054 1632.32)" stroke="#140005" stroke-width="2" stroke-linecap="round"/>
<line x1="1" y1="-1" x2="3.75373" y2="-1" transform="matrix(0.248678 0.968586 -0.716453 0.697636 282.054 1651.4)" stroke="#140005" stroke-width="2" stroke-linecap="round"/>
<line x1="1" y1="-1" x2="3.75373" y2="-1" transform="matrix(0.248678 0.968586 -0.716453 0.697636 301.818 1556)" stroke="#140005" stroke-width="2" stroke-linecap="round"/>
<line x1="1" y1="-1" x2="3.75373" y2="-1" transform="matrix(0.248678 0.968586 -0.716453 0.697636 301.818 1575.08)" stroke="#140005" stroke-width="2" stroke-linecap="round"/>
<line x1="1" y1="-1" x2="3.75373" y2="-1" transform="matrix(0.248678 0.968586 -0.716453 0.697636 301.818 1594.16)" stroke="#140005" stroke-width="2" stroke-linecap="round"/>
<line x1="1" y1="-1" x2="3.75373" y2="-1" transform="matrix(0.248678 0.968586 -0.716453 0.697636 301.818 1613.24)" stroke="#140005" stroke-width="2" stroke-linecap="round"/>
<line x1="1" y1="-1" x2="3.75373" y2="-1" transform="matrix(0.248678 0.968586 -0.716453 0.697636 301.818 1632.32)" stroke="#140005" stroke-width="2" stroke-linecap="round"/>
<line x1="1" y1="-1" x2="3.75373" y2="-1" transform="matrix(0.248678 0.968586 -0.716453 0.697636 301.818 1651.4)" stroke="#140005" stroke-width="2" stroke-linecap="round"/>
<defs>
<linearGradient id="paint0_linear_164_3" x1="160.5" y1="336.5" x2="175" y2="10" gradientUnits="userSpaceOnUse">
<stop stop-color="#F8AFA6" stop-opacity="0.1"/>
<stop offset="1" stop-color="#F8AFA6" stop-opacity="0"/>
</linearGradient>
</defs>
</svg>
