<svg width="1378" height="1614" viewBox="0 0 1378 1614" fill="none" xmlns="http://www.w3.org/2000/svg">
<path d="M106 986.5C-31.5127 1385 264 1596.5 445 1613" stroke="#FADCD9" stroke-width="2"/>
<path d="M-10 1C38 54.1667 187.724 348.363 74.6079 633C-16 861 74.6079 1008 208 1049" stroke="#FADCD9" stroke-width="2"/>
<line x1="1" y1="-1" x2="3.75373" y2="-1" transform="matrix(0.248678 0.968586 -0.716453 0.697636 621 779)" stroke="#140005" stroke-width="2" stroke-linecap="round"/>
<line x1="1" y1="-1" x2="3.75373" y2="-1" transform="matrix(0.248678 0.968586 -0.716453 0.697636 621 798.079)" stroke="#140005" stroke-width="2" stroke-linecap="round"/>
<line x1="1" y1="-1" x2="3.75373" y2="-1" transform="matrix(0.248678 0.968586 -0.716453 0.697636 621 817.158)" stroke="#140005" stroke-width="2" stroke-linecap="round"/>
<line x1="1" y1="-1" x2="3.75373" y2="-1" transform="matrix(0.248678 0.968586 -0.716453 0.697636 621 836.237)" stroke="#140005" stroke-width="2" stroke-linecap="round"/>
<line x1="1" y1="-1" x2="3.75373" y2="-1" transform="matrix(0.248678 0.968586 -0.716453 0.697636 621 855.317)" stroke="#140005" stroke-width="2" stroke-linecap="round"/>
<line x1="1" y1="-1" x2="3.75373" y2="-1" transform="matrix(0.248678 0.968586 -0.716453 0.697636 621 874.396)" stroke="#140005" stroke-width="2" stroke-linecap="round"/>
<line x1="1" y1="-1" x2="3.75373" y2="-1" transform="matrix(0.248678 0.968586 -0.716453 0.697636 640.764 779)" stroke="#140005" stroke-width="2" stroke-linecap="round"/>
<line x1="1" y1="-1" x2="3.75373" y2="-1" transform="matrix(0.248678 0.968586 -0.716453 0.697636 640.764 798.079)" stroke="#140005" stroke-width="2" stroke-linecap="round"/>
<line x1="1" y1="-1" x2="3.75373" y2="-1" transform="matrix(0.248678 0.968586 -0.716453 0.697636 640.764 817.158)" stroke="#140005" stroke-width="2" stroke-linecap="round"/>
<line x1="1" y1="-1" x2="3.75373" y2="-1" transform="matrix(0.248678 0.968586 -0.716453 0.697636 640.764 836.237)" stroke="#140005" stroke-width="2" stroke-linecap="round"/>
<line x1="1" y1="-1" x2="3.75373" y2="-1" transform="matrix(0.248678 0.968586 -0.716453 0.697636 640.764 855.317)" stroke="#140005" stroke-width="2" stroke-linecap="round"/>
<line x1="1" y1="-1" x2="3.75373" y2="-1" transform="matrix(0.248678 0.968586 -0.716453 0.697636 640.764 874.396)" stroke="#140005" stroke-width="2" stroke-linecap="round"/>
<line x1="1" y1="-1" x2="3.75373" y2="-1" transform="matrix(0.248678 0.968586 -0.716453 0.697636 660.527 779)" stroke="#140005" stroke-width="2" stroke-linecap="round"/>
<line x1="1" y1="-1" x2="3.75373" y2="-1" transform="matrix(0.248678 0.968586 -0.716453 0.697636 660.527 798.079)" stroke="#140005" stroke-width="2" stroke-linecap="round"/>
<line x1="1" y1="-1" x2="3.75373" y2="-1" transform="matrix(0.248678 0.968586 -0.716453 0.697636 660.527 817.158)" stroke="#140005" stroke-width="2" stroke-linecap="round"/>
<line x1="1" y1="-1" x2="3.75373" y2="-1" transform="matrix(0.248678 0.968586 -0.716453 0.697636 660.527 836.237)" stroke="#140005" stroke-width="2" stroke-linecap="round"/>
<line x1="1" y1="-1" x2="3.75373" y2="-1" transform="matrix(0.248678 0.968586 -0.716453 0.697636 660.527 855.317)" stroke="#140005" stroke-width="2" stroke-linecap="round"/>
<line x1="1" y1="-1" x2="3.75373" y2="-1" transform="matrix(0.248678 0.968586 -0.716453 0.697636 660.527 874.396)" stroke="#140005" stroke-width="2" stroke-linecap="round"/>
<line x1="1" y1="-1" x2="3.75373" y2="-1" transform="matrix(0.248678 0.968586 -0.716453 0.697636 680.291 779)" stroke="#140005" stroke-width="2" stroke-linecap="round"/>
<line x1="1" y1="-1" x2="3.75373" y2="-1" transform="matrix(0.248678 0.968586 -0.716453 0.697636 680.291 798.079)" stroke="#140005" stroke-width="2" stroke-linecap="round"/>
<line x1="1" y1="-1" x2="3.75373" y2="-1" transform="matrix(0.248678 0.968586 -0.716453 0.697636 680.291 817.158)" stroke="#140005" stroke-width="2" stroke-linecap="round"/>
<line x1="1" y1="-1" x2="3.75373" y2="-1" transform="matrix(0.248678 0.968586 -0.716453 0.697636 680.291 836.237)" stroke="#140005" stroke-width="2" stroke-linecap="round"/>
<line x1="1" y1="-1" x2="3.75373" y2="-1" transform="matrix(0.248678 0.968586 -0.716453 0.697636 680.291 855.317)" stroke="#140005" stroke-width="2" stroke-linecap="round"/>
<line x1="1" y1="-1" x2="3.75373" y2="-1" transform="matrix(0.248678 0.968586 -0.716453 0.697636 680.291 874.396)" stroke="#140005" stroke-width="2" stroke-linecap="round"/>
<line x1="1" y1="-1" x2="3.75373" y2="-1" transform="matrix(0.248678 0.968586 -0.716453 0.697636 700.054 779)" stroke="#140005" stroke-width="2" stroke-linecap="round"/>
<line x1="1" y1="-1" x2="3.75373" y2="-1" transform="matrix(0.248678 0.968586 -0.716453 0.697636 700.054 798.079)" stroke="#140005" stroke-width="2" stroke-linecap="round"/>
<line x1="1" y1="-1" x2="3.75373" y2="-1" transform="matrix(0.248678 0.968586 -0.716453 0.697636 700.054 817.158)" stroke="#140005" stroke-width="2" stroke-linecap="round"/>
<line x1="1" y1="-1" x2="3.75373" y2="-1" transform="matrix(0.248678 0.968586 -0.716453 0.697636 700.054 836.237)" stroke="#140005" stroke-width="2" stroke-linecap="round"/>
<line x1="1" y1="-1" x2="3.75373" y2="-1" transform="matrix(0.248678 0.968586 -0.716453 0.697636 700.054 855.317)" stroke="#140005" stroke-width="2" stroke-linecap="round"/>
<line x1="1" y1="-1" x2="3.75373" y2="-1" transform="matrix(0.248678 0.968586 -0.716453 0.697636 700.054 874.396)" stroke="#140005" stroke-width="2" stroke-linecap="round"/>
<line x1="1" y1="-1" x2="3.75373" y2="-1" transform="matrix(0.248678 0.968586 -0.716453 0.697636 719.818 779)" stroke="#140005" stroke-width="2" stroke-linecap="round"/>
<line x1="1" y1="-1" x2="3.75373" y2="-1" transform="matrix(0.248678 0.968586 -0.716453 0.697636 719.818 798.079)" stroke="#140005" stroke-width="2" stroke-linecap="round"/>
<line x1="1" y1="-1" x2="3.75373" y2="-1" transform="matrix(0.248678 0.968586 -0.716453 0.697636 719.818 817.158)" stroke="#140005" stroke-width="2" stroke-linecap="round"/>
<line x1="1" y1="-1" x2="3.75373" y2="-1" transform="matrix(0.248678 0.968586 -0.716453 0.697636 719.818 836.237)" stroke="#140005" stroke-width="2" stroke-linecap="round"/>
<line x1="1" y1="-1" x2="3.75373" y2="-1" transform="matrix(0.248678 0.968586 -0.716453 0.697636 719.818 855.317)" stroke="#140005" stroke-width="2" stroke-linecap="round"/>
<line x1="1" y1="-1" x2="3.75373" y2="-1" transform="matrix(0.248678 0.968586 -0.716453 0.697636 719.818 874.396)" stroke="#140005" stroke-width="2" stroke-linecap="round"/>
<rect x="1122" y="500" width="256" height="267" fill="#F0FFCC" fill-opacity="0.4"/>
<rect x="581" y="685" width="275" height="267" fill="#F0FFCC" fill-opacity="0.4"/>
<line x1="1" y1="-1" x2="3.75373" y2="-1" transform="matrix(0.248678 0.968586 -0.716453 0.697636 1261 642)" stroke="#140005" stroke-width="2" stroke-linecap="round"/>
<line x1="1" y1="-1" x2="3.75373" y2="-1" transform="matrix(0.248678 0.968586 -0.716453 0.697636 1261 661.079)" stroke="#140005" stroke-width="2" stroke-linecap="round"/>
<line x1="1" y1="-1" x2="3.75373" y2="-1" transform="matrix(0.248678 0.968586 -0.716453 0.697636 1261 680.158)" stroke="#140005" stroke-width="2" stroke-linecap="round"/>
<line x1="1" y1="-1" x2="3.75373" y2="-1" transform="matrix(0.248678 0.968586 -0.716453 0.697636 1261 699.237)" stroke="#140005" stroke-width="2" stroke-linecap="round"/>
<line x1="1" y1="-1" x2="3.75373" y2="-1" transform="matrix(0.248678 0.968586 -0.716453 0.697636 1261 718.317)" stroke="#140005" stroke-width="2" stroke-linecap="round"/>
<line x1="1" y1="-1" x2="3.75373" y2="-1" transform="matrix(0.248678 0.968586 -0.716453 0.697636 1261 737.396)" stroke="#140005" stroke-width="2" stroke-linecap="round"/>
<line x1="1" y1="-1" x2="3.75373" y2="-1" transform="matrix(0.248678 0.968586 -0.716453 0.697636 1280.76 642)" stroke="#140005" stroke-width="2" stroke-linecap="round"/>
<line x1="1" y1="-1" x2="3.75373" y2="-1" transform="matrix(0.248678 0.968586 -0.716453 0.697636 1280.76 661.079)" stroke="#140005" stroke-width="2" stroke-linecap="round"/>
<line x1="1" y1="-1" x2="3.75373" y2="-1" transform="matrix(0.248678 0.968586 -0.716453 0.697636 1280.76 680.158)" stroke="#140005" stroke-width="2" stroke-linecap="round"/>
<line x1="1" y1="-1" x2="3.75373" y2="-1" transform="matrix(0.248678 0.968586 -0.716453 0.697636 1280.76 699.237)" stroke="#140005" stroke-width="2" stroke-linecap="round"/>
<line x1="1" y1="-1" x2="3.75373" y2="-1" transform="matrix(0.248678 0.968586 -0.716453 0.697636 1280.76 718.317)" stroke="#140005" stroke-width="2" stroke-linecap="round"/>
<line x1="1" y1="-1" x2="3.75373" y2="-1" transform="matrix(0.248678 0.968586 -0.716453 0.697636 1280.76 737.396)" stroke="#140005" stroke-width="2" stroke-linecap="round"/>
<line x1="1" y1="-1" x2="3.75373" y2="-1" transform="matrix(0.248678 0.968586 -0.716453 0.697636 1300.53 642)" stroke="#140005" stroke-width="2" stroke-linecap="round"/>
<line x1="1" y1="-1" x2="3.75373" y2="-1" transform="matrix(0.248678 0.968586 -0.716453 0.697636 1300.53 661.079)" stroke="#140005" stroke-width="2" stroke-linecap="round"/>
<line x1="1" y1="-1" x2="3.75373" y2="-1" transform="matrix(0.248678 0.968586 -0.716453 0.697636 1300.53 680.158)" stroke="#140005" stroke-width="2" stroke-linecap="round"/>
<line x1="1" y1="-1" x2="3.75373" y2="-1" transform="matrix(0.248678 0.968586 -0.716453 0.697636 1300.53 699.237)" stroke="#140005" stroke-width="2" stroke-linecap="round"/>
<line x1="1" y1="-1" x2="3.75373" y2="-1" transform="matrix(0.248678 0.968586 -0.716453 0.697636 1300.53 718.317)" stroke="#140005" stroke-width="2" stroke-linecap="round"/>
<line x1="1" y1="-1" x2="3.75373" y2="-1" transform="matrix(0.248678 0.968586 -0.716453 0.697636 1300.53 737.396)" stroke="#140005" stroke-width="2" stroke-linecap="round"/>
<line x1="1" y1="-1" x2="3.75373" y2="-1" transform="matrix(0.248678 0.968586 -0.716453 0.697636 1320.29 642)" stroke="#140005" stroke-width="2" stroke-linecap="round"/>
<line x1="1" y1="-1" x2="3.75373" y2="-1" transform="matrix(0.248678 0.968586 -0.716453 0.697636 1320.29 661.079)" stroke="#140005" stroke-width="2" stroke-linecap="round"/>
<line x1="1" y1="-1" x2="3.75373" y2="-1" transform="matrix(0.248678 0.968586 -0.716453 0.697636 1320.29 680.158)" stroke="#140005" stroke-width="2" stroke-linecap="round"/>
<line x1="1" y1="-1" x2="3.75373" y2="-1" transform="matrix(0.248678 0.968586 -0.716453 0.697636 1320.29 699.237)" stroke="#140005" stroke-width="2" stroke-linecap="round"/>
<line x1="1" y1="-1" x2="3.75373" y2="-1" transform="matrix(0.248678 0.968586 -0.716453 0.697636 1320.29 718.317)" stroke="#140005" stroke-width="2" stroke-linecap="round"/>
<line x1="1" y1="-1" x2="3.75373" y2="-1" transform="matrix(0.248678 0.968586 -0.716453 0.697636 1320.29 737.396)" stroke="#140005" stroke-width="2" stroke-linecap="round"/>
<line x1="1" y1="-1" x2="3.75373" y2="-1" transform="matrix(0.248678 0.968586 -0.716453 0.697636 1340.05 642)" stroke="#140005" stroke-width="2" stroke-linecap="round"/>
<line x1="1" y1="-1" x2="3.75373" y2="-1" transform="matrix(0.248678 0.968586 -0.716453 0.697636 1340.05 661.079)" stroke="#140005" stroke-width="2" stroke-linecap="round"/>
<line x1="1" y1="-1" x2="3.75373" y2="-1" transform="matrix(0.248678 0.968586 -0.716453 0.697636 1340.05 680.158)" stroke="#140005" stroke-width="2" stroke-linecap="round"/>
<line x1="1" y1="-1" x2="3.75373" y2="-1" transform="matrix(0.248678 0.968586 -0.716453 0.697636 1340.05 699.237)" stroke="#140005" stroke-width="2" stroke-linecap="round"/>
<line x1="1" y1="-1" x2="3.75373" y2="-1" transform="matrix(0.248678 0.968586 -0.716453 0.697636 1340.05 718.317)" stroke="#140005" stroke-width="2" stroke-linecap="round"/>
<line x1="1" y1="-1" x2="3.75373" y2="-1" transform="matrix(0.248678 0.968586 -0.716453 0.697636 1340.05 737.396)" stroke="#140005" stroke-width="2" stroke-linecap="round"/>
<line x1="1" y1="-1" x2="3.75373" y2="-1" transform="matrix(0.248678 0.968586 -0.716453 0.697636 1359.82 642)" stroke="#140005" stroke-width="2" stroke-linecap="round"/>
<line x1="1" y1="-1" x2="3.75373" y2="-1" transform="matrix(0.248678 0.968586 -0.716453 0.697636 1359.82 661.079)" stroke="#140005" stroke-width="2" stroke-linecap="round"/>
<line x1="1" y1="-1" x2="3.75373" y2="-1" transform="matrix(0.248678 0.968586 -0.716453 0.697636 1359.82 680.158)" stroke="#140005" stroke-width="2" stroke-linecap="round"/>
<line x1="1" y1="-1" x2="3.75373" y2="-1" transform="matrix(0.248678 0.968586 -0.716453 0.697636 1359.82 699.237)" stroke="#140005" stroke-width="2" stroke-linecap="round"/>
<line x1="1" y1="-1" x2="3.75373" y2="-1" transform="matrix(0.248678 0.968586 -0.716453 0.697636 1359.82 718.317)" stroke="#140005" stroke-width="2" stroke-linecap="round"/>
<line x1="1" y1="-1" x2="3.75373" y2="-1" transform="matrix(0.248678 0.968586 -0.716453 0.697636 1359.82 737.396)" stroke="#140005" stroke-width="2" stroke-linecap="round"/>
<rect x="179" y="1316" width="103" height="102" fill="white"/>
</svg>
